<svg width="69" height="82" viewBox="0 0 69 82" fill="none" xmlns="http://www.w3.org/2000/svg">
<path d="M26.4893 30.908L32.1667 36.5748L43.5214 25.2306" stroke="#4E73B7" stroke-width="3" stroke-linecap="round" stroke-linejoin="round"/>
<path d="M34.9046 48.7786C44.745 48.7786 52.7221 40.8014 52.7221 30.9611C52.7221 21.1208 44.745 13.1436 34.9046 13.1436C25.0643 13.1436 17.0872 21.1208 17.0872 30.9611C17.0872 40.8014 25.0643 48.7786 34.9046 48.7786Z" stroke="#4E73B7" stroke-width="3" stroke-linecap="round" stroke-linejoin="round"/>
<path d="M40.6032 3.42306C47.3736 -1.53272 56.8077 3.91121 55.895 12.2522C55.4387 16.4333 57.7521 20.434 61.5937 22.1319C69.2661 25.5172 69.2661 36.405 61.5937 39.7902C57.7415 41.4882 55.4387 45.4782 55.895 49.67C56.7971 58.011 47.3736 63.4549 40.6032 58.4991C37.2074 56.0159 32.5912 56.0159 29.206 58.4991C22.4355 63.4549 13.0015 58.011 13.9141 49.67C14.3704 45.4889 12.057 41.4882 8.21551 39.7902C0.543071 36.405 0.543071 25.5172 8.21551 22.1319C12.0677 20.434 14.3704 16.4439 13.9141 12.2522C13.0121 3.91121 22.4355 -1.53272 29.206 3.42306C32.6018 5.90626 37.218 5.90626 40.6032 3.42306Z" stroke="#4E73B7" stroke-width="3" stroke-linecap="round" stroke-linejoin="round"/>
<path d="M40.6031 58.4991C39.8921 57.9791 39.1281 57.5971 38.3428 57.3L46.1426 80.4765L51.7775 71.573L61.6572 75.2342L54.8868 55.1988C52.3187 60.0591 45.7181 62.2345 40.6137 58.4991H40.6031Z" stroke="#4E73B7" stroke-width="3" stroke-linecap="round" stroke-linejoin="round"/>
<path d="M15.092 55.4853L8.34277 75.2342L18.2225 71.573L23.8575 80.4765L31.7209 57.1938C30.8401 57.5016 29.9912 57.9261 29.2165 58.4991C24.2183 62.1602 17.7768 60.144 15.1026 55.4853H15.092Z" stroke="#4E73B7" stroke-width="3" stroke-linecap="round" stroke-linejoin="round"/>
</svg>
