<svg width="71" height="84" viewBox="0 0 71 84" fill="none" xmlns="http://www.w3.org/2000/svg">
<path d="M52.426 37.1716H18.0857V59.1701C18.0857 59.1701 25.7369 64.3806 35.2558 64.3806C44.7748 64.3806 52.426 59.1701 52.426 59.1701V37.1716Z" stroke="#4E73B7" stroke-width="3" stroke-linecap="round" stroke-linejoin="round"/>
<path d="M35.5 82.0814C35.5 82.0814 69.4583 71.5543 69.4583 47.1044V11.48C69.4583 11.48 52.0759 13.6555 35.5 1.91864C18.9241 13.6449 1.54175 11.48 1.54175 11.48V47.1044C1.54175 71.5649 35.5 82.0814 35.5 82.0814Z" stroke="#4E73B7" stroke-width="3" stroke-linecap="round" stroke-linejoin="round"/>
<path d="M22.1184 37.1609V30.2632C22.1184 23.0152 28.008 17.1256 35.256 17.1256C42.504 17.1256 48.3936 23.0152 48.3936 30.2632V37.1609" stroke="#4E73B7" stroke-width="3" stroke-linecap="round" stroke-linejoin="round"/>
<path d="M40.7954 37.1928V30.5709C40.7954 27.4935 38.291 24.989 35.2135 24.989C32.136 24.989 29.6316 27.4935 29.6316 30.5709V37.1928" stroke="#4E73B7" stroke-width="3" stroke-linecap="round" stroke-linejoin="round"/>
<path d="M35.2559 46.4995V51.8903" stroke="#4E73B7" stroke-width="3" stroke-linecap="round" stroke-linejoin="round"/>
</svg>
