<svg width="85" height="80" viewBox="0 0 85 80" fill="none" xmlns="http://www.w3.org/2000/svg">
<path d="M23.7592 78.203H57.0065M34.3712 65.5854L30.8798 78.203H49.8752L46.3521 65.543M40.7596 57.8918C40.7596 53.0739 36.8862 49.1687 32.1108 49.1687H21.467C16.6916 49.1687 12.8183 53.0739 12.8183 57.8918M34.4454 13.9689H5.35807C3.72383 13.9689 2.38672 15.4439 2.38672 17.2586V62.0941C2.38672 63.9193 3.71321 65.3944 5.35807 65.3944H75.4076C77.0418 65.3944 78.3789 63.9193 78.3789 62.0941V41.2734M19.0581 37.0817C19.0581 41.1143 22.2947 44.3721 26.2955 44.3721C30.2962 44.3721 33.5328 41.1036 33.5328 37.0817C33.5328 33.0598 30.2962 29.7913 26.2955 29.7913C22.2947 29.7913 19.0581 33.0598 19.0581 37.0817Z" stroke="#4E73B7" stroke-width="3" stroke-linecap="round" stroke-linejoin="round"/>
<path d="M61.7182 35.8295H79.5994C81.2654 35.8295 82.6132 34.4712 82.6132 32.7945V4.83198C82.6132 3.15529 81.2654 1.79696 79.5994 1.79696H43.402C41.7359 1.79696 40.3882 3.15529 40.3882 4.83198V32.7945C40.3882 34.4712 41.7359 35.8295 43.402 35.8295H52.0826V43.1199L61.7288 35.8295" stroke="#4E73B7" stroke-width="3" stroke-linecap="round" stroke-linejoin="round"/>
<path d="M51.5413 14.1068H60.1476" stroke="#4E73B7" stroke-width="3" stroke-linecap="round" stroke-linejoin="round"/>
<path d="M51.5413 21.5776H72.2664" stroke="#4E73B7" stroke-width="3" stroke-linecap="round" stroke-linejoin="round"/>
</svg>
