<svg width="84" height="68" viewBox="0 0 84 68" fill="none" xmlns="http://www.w3.org/2000/svg">
<path d="M24.0763 66.1224C18.7703 66.1224 14.4619 64.8383 11.257 62.2809C8.05223 59.7128 5.73883 56.0516 4.30621 51.2656C2.88421 46.4903 2.1626 40.7492 2.1626 34.0424C2.1626 23.908 3.94541 16.0127 7.4898 10.3566C11.0448 4.70039 16.6055 1.87761 24.0657 1.87761C31.5259 1.87761 37.0865 4.70039 40.6415 10.3566C44.1966 16.0127 45.9688 23.908 45.9688 34.0424C45.9688 40.7492 45.2577 46.4797 43.8251 51.2656C42.3925 56.041 40.0791 59.7128 36.8743 62.2809C33.6695 64.849 29.361 66.1224 24.0551 66.1224H24.0763ZM15.4806 34.0424C15.4806 41.1525 16.0961 46.5009 17.3165 50.0771C18.5368 53.664 20.8078 55.4574 24.1293 55.4574C27.4509 55.4574 29.6688 53.6852 30.9422 50.1302C32.2263 46.5752 32.863 41.2161 32.863 34.0424C32.863 26.8688 32.2263 21.5734 30.9422 17.9547C29.6582 14.3467 27.3872 12.532 24.1293 12.532C20.8715 12.532 18.5368 14.336 17.3165 17.9547C16.0961 21.5734 15.4806 26.9324 15.4806 34.0424Z" stroke="#4E73B7" stroke-width="3" stroke-linecap="round" stroke-linejoin="round"/>
<path d="M57.7056 51.8281L77.3801 16.3842" stroke="#4E73B7" stroke-width="3" stroke-linecap="round" stroke-linejoin="round"/>
<path d="M58.3635 18.2837C60.019 18.2837 61.2712 18.8567 62.1307 20.0134C62.9903 21.1595 63.4148 22.7832 63.4148 24.8737C63.4148 26.9643 63.0115 28.5879 62.205 29.7552C61.3985 30.9225 60.1145 31.5168 58.3635 31.5168C56.7293 31.5168 55.4983 30.9331 54.6599 29.7552C53.8216 28.5879 53.4077 26.9537 53.4077 24.8737C53.4077 22.7938 53.8004 21.1701 54.5856 20.0134C55.3709 18.8674 56.6337 18.2837 58.3635 18.2837Z" stroke="#4E73B7" stroke-width="3" stroke-linecap="round" stroke-linejoin="round"/>
<path d="M76.7859 37.4595C78.4413 37.4595 79.6935 38.0325 80.5531 39.1892C81.4127 40.3459 81.8372 41.959 81.8372 44.0495C81.8372 46.1401 81.4339 47.7637 80.6274 48.931C79.8209 50.0983 78.5368 50.682 76.7859 50.682C75.1516 50.682 73.9206 50.0983 73.0823 48.931C72.2439 47.7637 71.8301 46.1295 71.8301 44.0495C71.8301 41.9696 72.2227 40.3459 73.008 39.1892C73.7933 38.0432 75.0561 37.4595 76.7859 37.4595Z" stroke="#4E73B7" stroke-width="3" stroke-linecap="round" stroke-linejoin="round"/>
</svg>
